/* XPM */
static char * about_xpm[] = {
/* width height ncolors chars_per_pixel */
"45 40 6 1",
/* colors */
" 	s background	c None",
".	c black",
"X	c Red",
"o	c #800080008000",
"O	c #0000ff000000",
"+	c gray75",
/* pixels */
"                                             ",
"                                             ",
"                         ...............     ",
"                         ...............     ",
"                        X.oooooooooooo..     ",
"                       X .oOOOOOoOOOOo..     ",
"                      X  .oooooooooooo..     ",
"                     X   .oOOOOOOooooo..     ",
"               X    X    .oOOOOOOooooo..     ",
"              XX   X     .oooooooooooo..     ",
"             X X  X      ...............     ",
"            X  X X     ..................    ",
"           X   XX      ..+++++++++++++++.    ",
"          X    X       ..+++++++++++++++.    ",
"         X             ..+XX++++......++.    ",
"        X              ..+++++++++++++++.    ",
"       X               ..................    ",
"      X                                      ",
"     X                                       ",
"   ..................                        ",
"   ..ooooooooooooooo.  XXXXXX           XX   ",
"   ..oOOOOoooOOOOooo.   XXXXXX         XX    ",
"   ..ooooooooooooooo.    XXXXXX       XX     ",
"   ..ooooooooooooooo.     XXXXXX     XX      ",
"   ..oOOOOOooOOOOooo.      XXXXXX   XX       ",
"   ..ooooooooooooooo.       XXXXXX XX        ",
"   ..oOOOOOooOOOOooo.        XXXX+XX         ",
"   ..ooooooooooooooo.         XX+XXX         ",
"   ..ooooooooooooooo.        XX+XXXXX        ",
"   ..................       XX  XXXXXX       ",
"  ....................     XX    XXXXXX      ",
"  .++++++++++++++++++.    XX      XXXXXX     ",
"  .++XX++++++.....+++.   XX        XXXXXX    ",
"  .++XX++++++.....+++.  XX          XXXXXX   ",
"  .++++++++++++++++++. XX            XXXXX   ",
"  ....................                       ",
"                                             ",
"                                             ",
"                                             ",
"                                             "};
