/* XPM */
static char * pppoff_xpm[] = {
"48 48 3 1",
" 	c white",
".	c red",
"X	c black",
"                                                ",
"                                                ",
"                                                ",
"                                                ",
"                                                ",
"                                                ",
"               .XXXX .XXXX .XXXX                ",
"               .X  .X.X  .X.X  .X               ",
"               .X  .X.X  .X.X  .X               ",
"               .X  .X.X  .X.X  .X               ",
"               .XXXX .XXXX .XXXX                ",
"               .X    .X    .X                   ",
"               .X    .X    .X                   ",
"               .X    .X    .X                   ",
"               .X    .X    .X                   ",
"                                                ",
"                                                ",
"                                                ",
"                .XXX .XXXXX.XXXXX               ",
"               .X  .X.X    .X                   ",
"               .X  .X.X    .X                   ",
"               .X  .X.X    .X                   ",
"               .X  .X.XXXX .XXXX                ",
"               .X  .X.X    .X                   ",
"               .X  .X.X    .X                   ",
"               .X  .X.X    .X                   ",
"                .XXX .X    .X                   ",
"                                                ",
"                                                ",
"                                                ",
"                                                ",
"                                                ",
"     .....   .....   .....   .....   .....      ",
"     .....X  .....X  .....X  .....X  .....X     ",
"     .....X  .....X  .....X  .....X  .....X     ",
"     .....X  .....X  .....X  .....X  .....X     ",
"      XXXXX   XXXXX   XXXXX   XXXXX   XXXXX     ",
"                                                ",
"     .....   .....   .....   .....   .....      ",
"     .....X  .....X  .....X  .....X  .....X     ",
"     .....X  .....X  .....X  .....X  .....X     ",
"     .....X  .....X  .....X  .....X  .....X     ",
"      XXXXX   XXXXX   XXXXX   XXXXX   XXXXX     ",
"                                                ",
"                                                ",
"                                                ",
"                                                ",
"                                                "};
