/* XPM */
static char * pppon_xpm[] = {
"48 48 4 1",
" 	c white",
".	c #00009E796595",
"X	c black",
"o	c green",
"                                                ",
"                                                ",
"                                                ",
"                                                ",
"                                                ",
"                                                ",
"               .XXXX .XXXX .XXXX                ",
"               .X  .X.X  .X.X  .X               ",
"               .X  .X.X  .X.X  .X               ",
"               .X  .X.X  .X.X  .X               ",
"               .XXXX .XXXX .XXXX                ",
"               .X    .X    .X                   ",
"               .X    .X    .X                   ",
"               .X    .X    .X                   ",
"               .X    .X    .X                   ",
"                                                ",
"                                                ",
"                   .XXX .X  .X                  ",
"                  .X  .X.XX .X                  ",
"                  .X  .X.XX .X                  ",
"                  .X  .X.X.X.X                  ",
"                  .X  .X.X.X.X                  ",
"                  .X  .X.X .XX                  ",
"                  .X  .X.X .XX                  ",
"                  .X  .X.X  .X                  ",
"                   .XXX .X  .X                  ",
"                                                ",
"                                                ",
"                                                ",
"                                                ",
"                                                ",
"                                                ",
"     ooooo   ooooo   ooooo   ooooo   ooooo      ",
"     oooooX  oooooX  oooooX  oooooX  oooooX     ",
"     oooooX  oooooX  oooooX  oooooX  oooooX     ",
"     oooooX  oooooX  oooooX  oooooX  oooooX     ",
"      XXXXX   XXXXX   XXXXX   XXXXX   XXXXX     ",
"                                                ",
"     ooooo   ooooo   ooooo   ooooo   ooooo      ",
"     oooooX  oooooX  oooooX  oooooX  oooooX     ",
"     oooooX  oooooX  oooooX  oooooX  oooooX     ",
"     oooooX  oooooX  oooooX  oooooX  oooooX     ",
"      XXXXX   XXXXX   XXXXX   XXXXX   XXXXX     ",
"                                                ",
"                                                ",
"                                                ",
"                                                ",
"                                                "};
